<svg width="30" height="28" viewBox="0 0 26 24" fill="none" xmlns="http://www.w3.org/2000/svg">
<path d="M25.1875 6.30571H0.934357V17.7673H25.1875V6.30571Z" fill="#FF0000"/>
<path d="M19.0938 6.30571H6.98752V17.7673H19.0938V6.30571Z" fill="white"/>
<path d="M13.0813 7.38138L12.2688 8.82798C12.1875 8.97635 12.025 8.97635 11.8625 8.86507L11.2937 8.56833L11.7406 10.7939C11.8219 11.2019 11.5375 11.2019 11.4156 11.0164L10.4 9.90366L10.2375 10.46C10.2375 10.5342 10.1156 10.6084 9.99375 10.6084L8.69375 10.3859L9.01875 11.5728C9.1 11.8325 9.14062 11.9437 8.9375 12.0179L8.53125 12.2405L10.725 13.9838C10.8062 14.058 10.8469 14.1693 10.8063 14.2806L10.6031 14.9111C11.375 14.8369 12.025 14.7628 12.7969 14.6515C12.8781 14.6515 12.9594 14.6886 12.9594 14.7999L12.8781 17.0625H13.2437L13.2031 14.7999C13.2031 14.7257 13.2844 14.6515 13.3656 14.6515C14.1375 14.7257 14.7875 14.7999 15.5594 14.9111L15.3562 14.2806C15.3156 14.1693 15.3562 14.058 15.4375 13.9838L17.6313 12.2405L17.1844 12.0179C16.9812 11.9437 17.0219 11.8325 17.1031 11.5728L17.4281 10.3859L16.1687 10.6455C16.0469 10.6826 15.9656 10.5713 15.925 10.4971L15.7625 9.94075L14.7469 11.0535C14.5844 11.239 14.3 11.239 14.4219 10.831L14.8687 8.60543L14.2594 8.90217C14.0969 8.97635 13.9344 9.01344 13.8531 8.86507L13.0813 7.38138Z" fill="#F80000"/>
</svg>
