<svg width="21" height="21" viewBox="0 0 21 21" fill="none" xmlns="http://www.w3.org/2000/svg">
<path d="M10.3505 4.96425C13.161 4.96425 15.4808 7.28404 15.4808 10.0945C15.4808 12.9497 13.161 15.2248 10.3505 15.2248C7.49534 15.2248 5.22017 12.9497 5.22017 10.0945C5.22017 7.28404 7.49534 4.96425 10.3505 4.96425ZM10.3505 13.4404C12.1795 13.4404 13.6517 11.9682 13.6517 10.0945C13.6517 8.26548 12.1795 6.79331 10.3505 6.79331C8.47679 6.79331 7.00462 8.26548 7.00462 10.0945C7.00462 11.9682 8.5214 13.4404 10.3505 13.4404ZM16.8637 4.7858C16.8637 5.45497 16.3284 5.99031 15.6592 5.99031C14.99 5.99031 14.4547 5.45497 14.4547 4.7858C14.4547 4.11663 14.99 3.5813 15.6592 3.5813C16.3284 3.5813 16.8637 4.11663 16.8637 4.7858ZM20.2542 5.99031C20.3434 7.64093 20.3434 12.5928 20.2542 14.2434C20.1649 15.8494 19.8081 17.2324 18.6482 18.4369C17.4883 19.5967 16.0607 19.9536 14.4547 20.0429C12.8041 20.1321 7.85223 20.1321 6.20161 20.0429C4.59561 19.9536 3.21266 19.5967 2.00815 18.4369C0.84826 17.2324 0.49137 15.8494 0.402148 14.2434C0.312925 12.5928 0.312925 7.64093 0.402148 5.99031C0.49137 4.3843 0.84826 2.95674 2.00815 1.79685C3.21266 0.636954 4.59561 0.280064 6.20161 0.190841C7.85223 0.101619 12.8041 0.101619 14.4547 0.190841C16.0607 0.280064 17.4883 0.636954 18.6482 1.79685C19.8081 2.95674 20.1649 4.3843 20.2542 5.99031ZM18.1128 15.9832C18.6482 14.6895 18.5143 11.5667 18.5143 10.0945C18.5143 8.66698 18.6482 5.5442 18.1128 4.20586C17.7559 3.35824 17.0868 2.64446 16.2392 2.33218C14.9008 1.79685 11.778 1.93068 10.3505 1.93068C8.87829 1.93068 5.7555 1.79685 4.46177 2.33218C3.56955 2.68907 2.90038 3.35824 2.54349 4.20586C2.00815 5.5442 2.14199 8.66698 2.14199 10.0945C2.14199 11.5667 2.00815 14.6895 2.54349 15.9832C2.90038 16.8755 3.56955 17.5446 4.46177 17.9015C5.7555 18.4369 8.87829 18.303 10.3505 18.303C11.778 18.303 14.9008 18.4369 16.2392 17.9015C17.0868 17.5446 17.8005 16.8755 18.1128 15.9832Z" fill="#242621"/>
</svg>
