<svg width="21" height="21" viewBox="0 0 21 21" fill="none" xmlns="http://www.w3.org/2000/svg">
<path d="M4.81866 20.7681H0.669815V7.42929H4.81866V20.7681ZM2.72193 5.64484C1.42821 5.64484 0.357536 4.52956 0.357536 3.19122C0.357536 1.89749 1.42821 0.826823 2.72193 0.826823C4.06027 0.826823 5.13094 1.89749 5.13094 3.19122C5.13094 4.52956 4.06027 5.64484 2.72193 5.64484ZM20.2988 20.7681H16.1945V14.2994C16.1945 12.738 16.1499 10.7751 14.0086 10.7751C11.8672 10.7751 11.555 12.4258 11.555 14.1656V20.7681H7.40612V7.42929H11.3765V9.25836H11.4211C12.0011 8.2323 13.3394 7.11701 15.3469 7.11701C19.5404 7.11701 20.3434 9.88291 20.3434 13.4518V20.7681H20.2988Z" fill="#242621"/>
</svg>
