<svg width="24" height="20" viewBox="0 0 24 20" fill="none" xmlns="http://www.w3.org/2000/svg">
<path d="M20.9066 5.34682C20.9066 5.56987 20.9066 5.74832 20.9066 5.97138C20.9066 12.1723 16.2224 19.2655 7.61239 19.2655C4.93572 19.2655 2.48209 18.5071 0.429976 17.1688C0.786866 17.2134 1.14376 17.258 1.54526 17.258C3.73121 17.258 5.73872 16.4996 7.34472 15.2505C5.29261 15.2059 3.55277 13.8676 2.97282 11.9939C3.2851 12.0385 3.55277 12.0831 3.86504 12.0831C4.26655 12.0831 4.71266 11.9939 5.06955 11.9047C2.92821 11.4586 1.3222 9.58489 1.3222 7.30971V7.2651C1.94676 7.62199 2.70515 7.80044 3.46354 7.84505C2.16982 6.99744 1.36681 5.56987 1.36681 3.96387C1.36681 3.07164 1.58987 2.26864 1.99137 1.59947C4.31116 4.40998 7.79084 6.28366 11.672 6.50671C11.5828 6.14982 11.5382 5.79293 11.5382 5.43604C11.5382 2.84859 13.6349 0.751856 16.2224 0.751856C17.5607 0.751856 18.7652 1.28719 19.6574 2.22403C20.6835 2.00097 21.7096 1.59947 22.6018 1.06414C22.2449 2.17942 21.5311 3.07164 20.5497 3.65159C21.4865 3.56237 22.4233 3.2947 23.2263 2.93781C22.6018 3.87465 21.7988 4.67765 20.9066 5.34682Z" fill="#242621"/>
</svg>
